<mxfile host="app.diagrams.net" modified="2023-07-17T00:58:22.894Z" agent="Mozilla/5.0 (Macintosh; Intel Mac OS X 10_15_7) AppleWebKit/537.36 (KHTML, like Gecko) Chrome/110.0.0.0 Safari/537.36" etag="s6-SaxZTP7SQSrQHochT" version="21.5.0" type="google">
  <diagram name="Página-1" id="9lija7tb1jmxZ63J8Sp4">
    <mxGraphModel grid="1" page="1" gridSize="10" guides="1" tooltips="1" connect="1" arrows="1" fold="1" pageScale="1" pageWidth="827" pageHeight="1169" math="0" shadow="0">
      <root>
        <mxCell id="0" />
        <mxCell id="1" parent="0" />
        <mxCell id="4SrW75g7R1ptIxgZbfpH-6" value="" style="rounded=0;whiteSpace=wrap;html=1;" vertex="1" parent="1">
          <mxGeometry x="1460" y="640" width="790" height="320" as="geometry" />
        </mxCell>
        <mxCell id="sp56Ecp61J_CKNmxilXY-21" value="" style="rounded=0;whiteSpace=wrap;html=1;" vertex="1" parent="1">
          <mxGeometry x="100" y="30" width="1350" height="530" as="geometry" />
        </mxCell>
        <mxCell id="sp56Ecp61J_CKNmxilXY-1" value="User Experience" style="rounded=0;whiteSpace=wrap;html=1;" vertex="1" parent="1">
          <mxGeometry x="100" y="10" width="1350" height="20" as="geometry" />
        </mxCell>
        <mxCell id="sp56Ecp61J_CKNmxilXY-2" value="" style="rounded=0;whiteSpace=wrap;html=1;gradientColor=#B48FDD;fillColor=#9260CB;" vertex="1" parent="1">
          <mxGeometry x="180" y="60" width="190" height="410" as="geometry" />
        </mxCell>
        <mxCell id="sp56Ecp61J_CKNmxilXY-4" value="Sign in to&lt;br&gt;Your&lt;br&gt;Account" style="rounded=0;whiteSpace=wrap;html=1;fillColor=none;strokeColor=none;align=left;fontSize=28;fontStyle=1;fontFamily=Poppins;fontSource=https%3A%2F%2Ffonts.googleapis.com%2Fcss%3Ffamily%3DPoppins;fontColor=#FFFFFF;" vertex="1" parent="1">
          <mxGeometry x="210" y="60" width="140" height="140" as="geometry" />
        </mxCell>
        <mxCell id="sp56Ecp61J_CKNmxilXY-5" value="" style="rounded=1;whiteSpace=wrap;html=1;strokeColor=none;fillColor=#D5BDED;" vertex="1" parent="1">
          <mxGeometry x="210" y="200" width="130" height="140" as="geometry" />
        </mxCell>
        <mxCell id="sp56Ecp61J_CKNmxilXY-6" value="Register" style="rounded=1;whiteSpace=wrap;html=1;strokeColor=#4F00A9;fillColor=none;strokeWidth=2;fontFamily=Poppins;fontSource=https%3A%2F%2Ffonts.googleapis.com%2Fcss%3Ffamily%3DPoppins;fontColor=#4F00A9;" vertex="1" parent="1">
          <mxGeometry x="200" y="384" width="70" height="50" as="geometry" />
        </mxCell>
        <mxCell id="sp56Ecp61J_CKNmxilXY-8" value="Sign in" style="rounded=1;whiteSpace=wrap;html=1;strokeColor=#4F00A9;fillColor=#4F00A9;strokeWidth=2;fontFamily=Poppins;fontSource=https%3A%2F%2Ffonts.googleapis.com%2Fcss%3Ffamily%3DPoppins;fontColor=#FFFFFF;" vertex="1" parent="1">
          <mxGeometry x="280" y="384" width="70" height="50" as="geometry" />
        </mxCell>
        <mxCell id="sp56Ecp61J_CKNmxilXY-9" value="" style="rounded=0;whiteSpace=wrap;html=1;gradientColor=#B48FDD;fillColor=#9260CB;" vertex="1" parent="1">
          <mxGeometry x="420" y="60" width="190" height="490" as="geometry" />
        </mxCell>
        <mxCell id="sp56Ecp61J_CKNmxilXY-10" value="Create&lt;br&gt;Account" style="rounded=0;whiteSpace=wrap;html=1;fillColor=none;strokeColor=none;align=left;fontSize=28;fontStyle=1;fontFamily=Poppins;fontSource=https%3A%2F%2Ffonts.googleapis.com%2Fcss%3Ffamily%3DPoppins;fontColor=#FFFFFF;verticalAlign=middle;" vertex="1" parent="1">
          <mxGeometry x="450" y="60" width="140" height="100" as="geometry" />
        </mxCell>
        <mxCell id="sp56Ecp61J_CKNmxilXY-11" value="" style="rounded=1;whiteSpace=wrap;html=1;strokeColor=none;fillColor=#D5BDED;" vertex="1" parent="1">
          <mxGeometry x="450" y="180" width="130" height="250" as="geometry" />
        </mxCell>
        <mxCell id="sp56Ecp61J_CKNmxilXY-12" value="Sign In" style="rounded=1;whiteSpace=wrap;html=1;strokeColor=#4F00A9;fillColor=none;strokeWidth=2;fontFamily=Poppins;fontSource=https%3A%2F%2Ffonts.googleapis.com%2Fcss%3Ffamily%3DPoppins;fontColor=#4F00A9;" vertex="1" parent="1">
          <mxGeometry x="440" y="467" width="70" height="50" as="geometry" />
        </mxCell>
        <mxCell id="sp56Ecp61J_CKNmxilXY-13" value="Register" style="rounded=1;whiteSpace=wrap;html=1;strokeColor=#4F00A9;fillColor=#4F00A9;strokeWidth=2;fontFamily=Poppins;fontSource=https%3A%2F%2Ffonts.googleapis.com%2Fcss%3Ffamily%3DPoppins;fontColor=#FFFFFF;" vertex="1" parent="1">
          <mxGeometry x="520" y="467" width="70" height="50" as="geometry" />
        </mxCell>
        <mxCell id="sp56Ecp61J_CKNmxilXY-14" value="" style="rounded=0;whiteSpace=wrap;html=1;gradientColor=#B48FDD;fillColor=#9260CB;" vertex="1" parent="1">
          <mxGeometry x="660" y="60" width="190" height="490" as="geometry" />
        </mxCell>
        <mxCell id="sp56Ecp61J_CKNmxilXY-15" value="My Lists" style="rounded=0;whiteSpace=wrap;html=1;fillColor=none;strokeColor=none;align=left;fontSize=28;fontStyle=1;fontFamily=Poppins;fontSource=https%3A%2F%2Ffonts.googleapis.com%2Fcss%3Ffamily%3DPoppins;fontColor=#FFFFFF;verticalAlign=middle;" vertex="1" parent="1">
          <mxGeometry x="660" y="60" width="190" height="40" as="geometry" />
        </mxCell>
        <mxCell id="sp56Ecp61J_CKNmxilXY-19" value="" style="rounded=1;whiteSpace=wrap;html=1;strokeColor=none;fillColor=#D5BDED;" vertex="1" parent="1">
          <mxGeometry x="700" y="110" width="110" height="120" as="geometry" />
        </mxCell>
        <mxCell id="sp56Ecp61J_CKNmxilXY-20" value="" style="rounded=1;whiteSpace=wrap;html=1;strokeColor=none;fillColor=#D5BDED;" vertex="1" parent="1">
          <mxGeometry x="820" y="115" width="100" height="110" as="geometry" />
        </mxCell>
        <mxCell id="sp56Ecp61J_CKNmxilXY-22" value="" style="rounded=0;whiteSpace=wrap;html=1;strokeColor=#FFFFFF;gradientColor=none;" vertex="1" parent="1">
          <mxGeometry x="851" y="100" width="120" height="150" as="geometry" />
        </mxCell>
        <mxCell id="sp56Ecp61J_CKNmxilXY-23" value="New +" style="rounded=1;whiteSpace=wrap;html=1;strokeColor=#4F00A9;fillColor=#4F00A9;strokeWidth=2;fontFamily=Poppins;fontSource=https%3A%2F%2Ffonts.googleapis.com%2Fcss%3Ffamily%3DPoppins;fontColor=#FFFFFF;fontSize=10;" vertex="1" parent="1">
          <mxGeometry x="800" y="72.5" width="40" height="15" as="geometry" />
        </mxCell>
        <mxCell id="sp56Ecp61J_CKNmxilXY-25" value="See all&amp;nbsp;→" style="rounded=1;whiteSpace=wrap;html=1;strokeColor=#4F00A9;fillColor=none;strokeWidth=2;fontFamily=Poppins;fontSource=https%3A%2F%2Ffonts.googleapis.com%2Fcss%3Ffamily%3DPoppins;fontColor=#4F00A9;" vertex="1" parent="1">
          <mxGeometry x="780" y="245" width="60" height="20" as="geometry" />
        </mxCell>
        <mxCell id="sp56Ecp61J_CKNmxilXY-26" value="List Title" style="rounded=0;whiteSpace=wrap;html=1;strokeColor=none;gradientColor=none;fillColor=#4F00A9;fontFamily=Poppins;fontSource=https%3A%2F%2Ffonts.googleapis.com%2Fcss%3Ffamily%3DPoppins;fontColor=#FFFFFF;fontStyle=0" vertex="1" parent="1">
          <mxGeometry x="700" y="130" width="110" height="30" as="geometry" />
        </mxCell>
        <mxCell id="sp56Ecp61J_CKNmxilXY-27" value="07/01/2023" style="rounded=0;whiteSpace=wrap;html=1;strokeColor=none;gradientColor=none;fillColor=none;fontFamily=Poppins;fontSource=https%3A%2F%2Ffonts.googleapis.com%2Fcss%3Ffamily%3DPoppins;fontColor=#4F00A9;fontStyle=0;align=left;fontSize=10;" vertex="1" parent="1">
          <mxGeometry x="700" y="160" width="110" height="30" as="geometry" />
        </mxCell>
        <mxCell id="sp56Ecp61J_CKNmxilXY-37" value="PW" style="ellipse;whiteSpace=wrap;html=1;aspect=fixed;fontFamily=Poppins;fontSource=https%3A%2F%2Ffonts.googleapis.com%2Fcss%3Ffamily%3DPoppins;fontStyle=1;fillColor=#FFFBDD;" vertex="1" parent="1">
          <mxGeometry x="704" y="190" width="20" height="20" as="geometry" />
        </mxCell>
        <mxCell id="sp56Ecp61J_CKNmxilXY-38" value="MC" style="ellipse;whiteSpace=wrap;html=1;aspect=fixed;fontFamily=Poppins;fontSource=https%3A%2F%2Ffonts.googleapis.com%2Fcss%3Ffamily%3DPoppins;fontStyle=1;fillColor=#FEBBEE;" vertex="1" parent="1">
          <mxGeometry x="727" y="190" width="20" height="20" as="geometry" />
        </mxCell>
        <mxCell id="sp56Ecp61J_CKNmxilXY-39" value="PR" style="ellipse;whiteSpace=wrap;html=1;aspect=fixed;fontFamily=Poppins;fontSource=https%3A%2F%2Ffonts.googleapis.com%2Fcss%3Ffamily%3DPoppins;fontStyle=1;fillColor=#C6F6CA;" vertex="1" parent="1">
          <mxGeometry x="750" y="190" width="20" height="20" as="geometry" />
        </mxCell>
        <mxCell id="sp56Ecp61J_CKNmxilXY-40" value="" style="rounded=0;whiteSpace=wrap;html=1;gradientColor=#B48FDD;fillColor=#9260CB;" vertex="1" parent="1">
          <mxGeometry x="1060" y="60" width="190" height="490" as="geometry" />
        </mxCell>
        <mxCell id="sp56Ecp61J_CKNmxilXY-41" value="List Title" style="rounded=0;whiteSpace=wrap;html=1;fillColor=none;strokeColor=none;align=left;fontSize=28;fontStyle=1;fontFamily=Poppins;fontSource=https%3A%2F%2Ffonts.googleapis.com%2Fcss%3Ffamily%3DPoppins;fontColor=#FFFFFF;verticalAlign=middle;" vertex="1" parent="1">
          <mxGeometry x="1060" y="60" width="190" height="40" as="geometry" />
        </mxCell>
        <mxCell id="sp56Ecp61J_CKNmxilXY-50" value="Ex.: Bread" style="rounded=1;whiteSpace=wrap;html=1;strokeColor=none;fontFamily=Poppins;fontSource=https%3A%2F%2Ffonts.googleapis.com%2Fcss%3Ffamily%3DPoppins;align=left;fontColor=#9260CB;fillColor=#D5BDED;" vertex="1" parent="1">
          <mxGeometry x="1070" y="102" width="140" height="30" as="geometry" />
        </mxCell>
        <mxCell id="sp56Ecp61J_CKNmxilXY-51" value="+" style="rounded=1;whiteSpace=wrap;html=1;strokeColor=#4F00A9;fillColor=#4F00A9;strokeWidth=2;fontFamily=Poppins;fontSource=https%3A%2F%2Ffonts.googleapis.com%2Fcss%3Ffamily%3DPoppins;fontColor=#FFFFFF;fontSize=24;labelBorderColor=none;" vertex="1" parent="1">
          <mxGeometry x="1215" y="102" width="30" height="30" as="geometry" />
        </mxCell>
        <mxCell id="sp56Ecp61J_CKNmxilXY-52" value="Pasta" style="rounded=1;whiteSpace=wrap;html=1;strokeColor=none;fontFamily=Poppins;fontSource=https%3A%2F%2Ffonts.googleapis.com%2Fcss%3Ffamily%3DPoppins;align=left;fontColor=#000000;fillColor=#FFFBDD;" vertex="1" parent="1">
          <mxGeometry x="1070" y="169" width="140" height="30" as="geometry" />
        </mxCell>
        <mxCell id="sp56Ecp61J_CKNmxilXY-53" value="✓" style="rounded=1;whiteSpace=wrap;html=1;strokeColor=#4F00A9;fillColor=#4F00A9;strokeWidth=2;fontFamily=Poppins;fontSource=https%3A%2F%2Ffonts.googleapis.com%2Fcss%3Ffamily%3DPoppins;fontColor=#FFFFFF;fontSize=24;labelBorderColor=none;" vertex="1" parent="1">
          <mxGeometry x="1215" y="169" width="30" height="30" as="geometry" />
        </mxCell>
        <mxCell id="sp56Ecp61J_CKNmxilXY-54" value="Missing" style="rounded=0;whiteSpace=wrap;html=1;fillColor=none;strokeColor=none;align=left;fontSize=17;fontStyle=1;fontFamily=Poppins;fontSource=https%3A%2F%2Ffonts.googleapis.com%2Fcss%3Ffamily%3DPoppins;fontColor=#FFFFFF;verticalAlign=middle;" vertex="1" parent="1">
          <mxGeometry x="1060" y="130" width="190" height="40" as="geometry" />
        </mxCell>
        <mxCell id="sp56Ecp61J_CKNmxilXY-55" value="Eggs" style="rounded=1;whiteSpace=wrap;html=1;strokeColor=none;fontFamily=Poppins;fontSource=https%3A%2F%2Ffonts.googleapis.com%2Fcss%3Ffamily%3DPoppins;align=left;fontColor=#000000;fillColor=#DFCEFF;" vertex="1" parent="1">
          <mxGeometry x="1070" y="206" width="140" height="30" as="geometry" />
        </mxCell>
        <mxCell id="sp56Ecp61J_CKNmxilXY-56" value="✓" style="rounded=1;whiteSpace=wrap;html=1;strokeColor=#4F00A9;fillColor=#4F00A9;strokeWidth=2;fontFamily=Poppins;fontSource=https%3A%2F%2Ffonts.googleapis.com%2Fcss%3Ffamily%3DPoppins;fontColor=#FFFFFF;fontSize=24;labelBorderColor=none;" vertex="1" parent="1">
          <mxGeometry x="1215" y="206" width="30" height="30" as="geometry" />
        </mxCell>
        <mxCell id="sp56Ecp61J_CKNmxilXY-57" value="Broccoli" style="rounded=1;whiteSpace=wrap;html=1;strokeColor=none;fontFamily=Poppins;fontSource=https%3A%2F%2Ffonts.googleapis.com%2Fcss%3Ffamily%3DPoppins;align=left;fontColor=#000000;fillColor=#FEBBEE;" vertex="1" parent="1">
          <mxGeometry x="1070" y="243" width="140" height="30" as="geometry" />
        </mxCell>
        <mxCell id="sp56Ecp61J_CKNmxilXY-58" value="✓" style="rounded=1;whiteSpace=wrap;html=1;strokeColor=#4F00A9;fillColor=#4F00A9;strokeWidth=2;fontFamily=Poppins;fontSource=https%3A%2F%2Ffonts.googleapis.com%2Fcss%3Ffamily%3DPoppins;fontColor=#FFFFFF;fontSize=24;labelBorderColor=none;" vertex="1" parent="1">
          <mxGeometry x="1215" y="243" width="30" height="30" as="geometry" />
        </mxCell>
        <mxCell id="sp56Ecp61J_CKNmxilXY-59" value="Lettuce" style="rounded=1;whiteSpace=wrap;html=1;strokeColor=none;fontFamily=Poppins;fontSource=https%3A%2F%2Ffonts.googleapis.com%2Fcss%3Ffamily%3DPoppins;align=left;fontColor=#000000;fillColor=#C6F6CA;" vertex="1" parent="1">
          <mxGeometry x="1070" y="279" width="140" height="30" as="geometry" />
        </mxCell>
        <mxCell id="sp56Ecp61J_CKNmxilXY-60" value="✓" style="rounded=1;whiteSpace=wrap;html=1;strokeColor=#4F00A9;fillColor=#4F00A9;strokeWidth=2;fontFamily=Poppins;fontSource=https%3A%2F%2Ffonts.googleapis.com%2Fcss%3Ffamily%3DPoppins;fontColor=#FFFFFF;fontSize=24;labelBorderColor=none;" vertex="1" parent="1">
          <mxGeometry x="1215" y="279" width="30" height="30" as="geometry" />
        </mxCell>
        <mxCell id="sp56Ecp61J_CKNmxilXY-61" value="Onions" style="rounded=1;whiteSpace=wrap;html=1;strokeColor=none;fontFamily=Poppins;fontSource=https%3A%2F%2Ffonts.googleapis.com%2Fcss%3Ffamily%3DPoppins;align=left;fontColor=#000000;fillColor=#FFD5BE;" vertex="1" parent="1">
          <mxGeometry x="1070" y="316" width="140" height="30" as="geometry" />
        </mxCell>
        <mxCell id="sp56Ecp61J_CKNmxilXY-62" value="✓" style="rounded=1;whiteSpace=wrap;html=1;strokeColor=#4F00A9;fillColor=#4F00A9;strokeWidth=2;fontFamily=Poppins;fontSource=https%3A%2F%2Ffonts.googleapis.com%2Fcss%3Ffamily%3DPoppins;fontColor=#FFFFFF;fontSize=24;labelBorderColor=none;" vertex="1" parent="1">
          <mxGeometry x="1215" y="316" width="30" height="30" as="geometry" />
        </mxCell>
        <mxCell id="sp56Ecp61J_CKNmxilXY-63" value="Done" style="rounded=0;whiteSpace=wrap;html=1;fillColor=none;strokeColor=none;align=left;fontSize=17;fontStyle=1;fontFamily=Poppins;fontSource=https%3A%2F%2Ffonts.googleapis.com%2Fcss%3Ffamily%3DPoppins;fontColor=#FFFFFF;verticalAlign=middle;" vertex="1" parent="1">
          <mxGeometry x="1060" y="344" width="190" height="40" as="geometry" />
        </mxCell>
        <mxCell id="sp56Ecp61J_CKNmxilXY-64" value="Milk" style="rounded=1;whiteSpace=wrap;html=1;strokeColor=none;fontFamily=Poppins;fontSource=https%3A%2F%2Ffonts.googleapis.com%2Fcss%3Ffamily%3DPoppins;align=left;fontColor=#000000;fillColor=#FFFBDD;glass=0;opacity=70;" vertex="1" parent="1">
          <mxGeometry x="1067.5" y="380" width="140" height="30" as="geometry" />
        </mxCell>
        <mxCell id="sp56Ecp61J_CKNmxilXY-65" value="-" style="rounded=1;whiteSpace=wrap;html=1;strokeColor=#4F00A9;fillColor=#4F00A9;strokeWidth=2;fontFamily=Poppins;fontSource=https%3A%2F%2Ffonts.googleapis.com%2Fcss%3Ffamily%3DPoppins;fontColor=#FFFFFF;fontSize=24;labelBorderColor=none;" vertex="1" parent="1">
          <mxGeometry x="1212.5" y="380" width="30" height="30" as="geometry" />
        </mxCell>
        <mxCell id="sp56Ecp61J_CKNmxilXY-66" value="Peanut Butter" style="rounded=1;whiteSpace=wrap;html=1;strokeColor=none;fontFamily=Poppins;fontSource=https%3A%2F%2Ffonts.googleapis.com%2Fcss%3Ffamily%3DPoppins;align=left;fontColor=#000000;fillColor=#DFCEFF;glass=0;opacity=70;" vertex="1" parent="1">
          <mxGeometry x="1067.5" y="415" width="140" height="30" as="geometry" />
        </mxCell>
        <mxCell id="sp56Ecp61J_CKNmxilXY-67" value="-" style="rounded=1;whiteSpace=wrap;html=1;strokeColor=#4F00A9;fillColor=#4F00A9;strokeWidth=2;fontFamily=Poppins;fontSource=https%3A%2F%2Ffonts.googleapis.com%2Fcss%3Ffamily%3DPoppins;fontColor=#FFFFFF;fontSize=24;labelBorderColor=none;" vertex="1" parent="1">
          <mxGeometry x="1212.5" y="415" width="30" height="30" as="geometry" />
        </mxCell>
        <mxCell id="sp56Ecp61J_CKNmxilXY-72" value="Toilet Paper" style="rounded=1;whiteSpace=wrap;html=1;strokeColor=none;fontFamily=Poppins;fontSource=https%3A%2F%2Ffonts.googleapis.com%2Fcss%3Ffamily%3DPoppins;align=left;fontColor=#000000;fillColor=#FEBBEE;glass=0;opacity=70;" vertex="1" parent="1">
          <mxGeometry x="1068" y="450" width="140" height="30" as="geometry" />
        </mxCell>
        <mxCell id="sp56Ecp61J_CKNmxilXY-73" value="-" style="rounded=1;whiteSpace=wrap;html=1;strokeColor=#4F00A9;fillColor=#4F00A9;strokeWidth=2;fontFamily=Poppins;fontSource=https%3A%2F%2Ffonts.googleapis.com%2Fcss%3Ffamily%3DPoppins;fontColor=#FFFFFF;fontSize=24;labelBorderColor=none;" vertex="1" parent="1">
          <mxGeometry x="1213" y="450" width="30" height="30" as="geometry" />
        </mxCell>
        <mxCell id="sp56Ecp61J_CKNmxilXY-74" value="Carrots" style="rounded=1;whiteSpace=wrap;html=1;strokeColor=none;fontFamily=Poppins;fontSource=https%3A%2F%2Ffonts.googleapis.com%2Fcss%3Ffamily%3DPoppins;align=left;fontColor=#000000;fillColor=#C6F6CA;glass=0;opacity=70;" vertex="1" parent="1">
          <mxGeometry x="1067.5" y="487" width="140" height="30" as="geometry" />
        </mxCell>
        <mxCell id="sp56Ecp61J_CKNmxilXY-75" value="-" style="rounded=1;whiteSpace=wrap;html=1;strokeColor=#4F00A9;fillColor=#4F00A9;strokeWidth=2;fontFamily=Poppins;fontSource=https%3A%2F%2Ffonts.googleapis.com%2Fcss%3Ffamily%3DPoppins;fontColor=#FFFFFF;fontSize=24;labelBorderColor=none;" vertex="1" parent="1">
          <mxGeometry x="1212.5" y="487" width="30" height="30" as="geometry" />
        </mxCell>
        <mxCell id="sp56Ecp61J_CKNmxilXY-77" value="Architecture" style="rounded=0;whiteSpace=wrap;html=1;" vertex="1" parent="1">
          <mxGeometry x="100" y="640" width="1350" height="20" as="geometry" />
        </mxCell>
        <mxCell id="sp56Ecp61J_CKNmxilXY-78" value="" style="rounded=0;whiteSpace=wrap;html=1;" vertex="1" parent="1">
          <mxGeometry x="100" y="660" width="1350" height="1200" as="geometry" />
        </mxCell>
        <mxCell id="sp56Ecp61J_CKNmxilXY-81" style="edgeStyle=orthogonalEdgeStyle;rounded=0;orthogonalLoop=1;jettySize=auto;html=1;entryX=0;entryY=0.5;entryDx=0;entryDy=0;entryPerimeter=0;" edge="1" parent="1" source="sp56Ecp61J_CKNmxilXY-79" target="sp56Ecp61J_CKNmxilXY-80">
          <mxGeometry relative="1" as="geometry" />
        </mxCell>
        <mxCell id="sp56Ecp61J_CKNmxilXY-79" value="Frontend" style="sketch=0;points=[[0,0,0],[0.25,0,0],[0.5,0,0],[0.75,0,0],[1,0,0],[0,1,0],[0.25,1,0],[0.5,1,0],[0.75,1,0],[1,1,0],[0,0.25,0],[0,0.5,0],[0,0.75,0],[1,0.25,0],[1,0.5,0],[1,0.75,0]];outlineConnect=0;fontColor=#232F3E;gradientColor=#F54749;gradientDirection=north;fillColor=#C7131F;strokeColor=#ffffff;dashed=0;verticalLabelPosition=top;verticalAlign=bottom;align=center;html=1;fontSize=12;fontStyle=0;aspect=fixed;shape=mxgraph.aws4.resourceIcon;resIcon=mxgraph.aws4.amplify;labelPosition=center;" vertex="1" parent="1">
          <mxGeometry x="132" y="886" width="78" height="78" as="geometry" />
        </mxCell>
        <mxCell id="sp56Ecp61J_CKNmxilXY-84" style="edgeStyle=orthogonalEdgeStyle;rounded=0;orthogonalLoop=1;jettySize=auto;html=1;" edge="1" parent="1" source="sp56Ecp61J_CKNmxilXY-80" target="sp56Ecp61J_CKNmxilXY-83">
          <mxGeometry relative="1" as="geometry">
            <Array as="points">
              <mxPoint x="470" y="925" />
              <mxPoint x="470" y="729" />
            </Array>
          </mxGeometry>
        </mxCell>
        <mxCell id="sp56Ecp61J_CKNmxilXY-89" style="edgeStyle=orthogonalEdgeStyle;rounded=0;orthogonalLoop=1;jettySize=auto;html=1;" edge="1" parent="1" source="sp56Ecp61J_CKNmxilXY-80" target="sp56Ecp61J_CKNmxilXY-86">
          <mxGeometry relative="1" as="geometry">
            <Array as="points">
              <mxPoint x="470" y="925" />
              <mxPoint x="470" y="847" />
            </Array>
          </mxGeometry>
        </mxCell>
        <mxCell id="sp56Ecp61J_CKNmxilXY-93" style="edgeStyle=orthogonalEdgeStyle;rounded=0;orthogonalLoop=1;jettySize=auto;html=1;" edge="1" parent="1" source="sp56Ecp61J_CKNmxilXY-80" target="sp56Ecp61J_CKNmxilXY-90">
          <mxGeometry relative="1" as="geometry">
            <Array as="points">
              <mxPoint x="470" y="925" />
              <mxPoint x="470" y="969" />
            </Array>
          </mxGeometry>
        </mxCell>
        <mxCell id="sp56Ecp61J_CKNmxilXY-97" style="edgeStyle=orthogonalEdgeStyle;rounded=0;orthogonalLoop=1;jettySize=auto;html=1;" edge="1" parent="1" source="sp56Ecp61J_CKNmxilXY-80" target="sp56Ecp61J_CKNmxilXY-94">
          <mxGeometry relative="1" as="geometry">
            <Array as="points">
              <mxPoint x="470" y="925" />
              <mxPoint x="470" y="1089" />
            </Array>
          </mxGeometry>
        </mxCell>
        <mxCell id="sp56Ecp61J_CKNmxilXY-101" style="edgeStyle=orthogonalEdgeStyle;rounded=0;orthogonalLoop=1;jettySize=auto;html=1;" edge="1" parent="1" source="sp56Ecp61J_CKNmxilXY-80" target="sp56Ecp61J_CKNmxilXY-98">
          <mxGeometry relative="1" as="geometry">
            <Array as="points">
              <mxPoint x="470" y="925" />
              <mxPoint x="470" y="1208" />
            </Array>
          </mxGeometry>
        </mxCell>
        <mxCell id="sp56Ecp61J_CKNmxilXY-105" style="edgeStyle=orthogonalEdgeStyle;rounded=0;orthogonalLoop=1;jettySize=auto;html=1;" edge="1" parent="1" source="sp56Ecp61J_CKNmxilXY-80" target="sp56Ecp61J_CKNmxilXY-102">
          <mxGeometry relative="1" as="geometry">
            <Array as="points">
              <mxPoint x="470" y="925" />
              <mxPoint x="470" y="1329" />
            </Array>
          </mxGeometry>
        </mxCell>
        <mxCell id="sp56Ecp61J_CKNmxilXY-109" style="edgeStyle=orthogonalEdgeStyle;rounded=0;orthogonalLoop=1;jettySize=auto;html=1;" edge="1" parent="1" source="sp56Ecp61J_CKNmxilXY-80" target="sp56Ecp61J_CKNmxilXY-106">
          <mxGeometry relative="1" as="geometry">
            <Array as="points">
              <mxPoint x="470" y="925" />
              <mxPoint x="470" y="1449" />
            </Array>
          </mxGeometry>
        </mxCell>
        <mxCell id="dqGexZCGm1QY2JAHM1nj-5" style="edgeStyle=orthogonalEdgeStyle;rounded=0;orthogonalLoop=1;jettySize=auto;html=1;" edge="1" parent="1" source="sp56Ecp61J_CKNmxilXY-80" target="dqGexZCGm1QY2JAHM1nj-3">
          <mxGeometry relative="1" as="geometry">
            <Array as="points">
              <mxPoint x="470" y="925" />
              <mxPoint x="470" y="1671" />
            </Array>
          </mxGeometry>
        </mxCell>
        <mxCell id="4SrW75g7R1ptIxgZbfpH-4" style="edgeStyle=orthogonalEdgeStyle;rounded=0;orthogonalLoop=1;jettySize=auto;html=1;" edge="1" parent="1" source="sp56Ecp61J_CKNmxilXY-80" target="4SrW75g7R1ptIxgZbfpH-1">
          <mxGeometry relative="1" as="geometry">
            <Array as="points">
              <mxPoint x="470" y="925" />
              <mxPoint x="470" y="1559" />
            </Array>
          </mxGeometry>
        </mxCell>
        <mxCell id="sp56Ecp61J_CKNmxilXY-80" value="" style="sketch=0;points=[[0,0,0],[0.25,0,0],[0.5,0,0],[0.75,0,0],[1,0,0],[0,1,0],[0.25,1,0],[0.5,1,0],[0.75,1,0],[1,1,0],[0,0.25,0],[0,0.5,0],[0,0.75,0],[1,0.25,0],[1,0.5,0],[1,0.75,0]];outlineConnect=0;fontColor=#232F3E;gradientColor=#FF4F8B;gradientDirection=north;fillColor=#BC1356;strokeColor=#ffffff;dashed=0;verticalLabelPosition=bottom;verticalAlign=top;align=center;html=1;fontSize=12;fontStyle=0;aspect=fixed;shape=mxgraph.aws4.resourceIcon;resIcon=mxgraph.aws4.api_gateway;" vertex="1" parent="1">
          <mxGeometry x="336" y="886" width="78" height="78" as="geometry" />
        </mxCell>
        <mxCell id="sp56Ecp61J_CKNmxilXY-111" style="edgeStyle=orthogonalEdgeStyle;rounded=0;orthogonalLoop=1;jettySize=auto;html=1;entryX=0;entryY=0.5;entryDx=0;entryDy=0;entryPerimeter=0;" edge="1" parent="1" source="sp56Ecp61J_CKNmxilXY-82" target="sp56Ecp61J_CKNmxilXY-110">
          <mxGeometry relative="1" as="geometry" />
        </mxCell>
        <mxCell id="sp56Ecp61J_CKNmxilXY-82" value="create-list" style="sketch=0;points=[[0,0,0],[0.25,0,0],[0.5,0,0],[0.75,0,0],[1,0,0],[0,1,0],[0.25,1,0],[0.5,1,0],[0.75,1,0],[1,1,0],[0,0.25,0],[0,0.5,0],[0,0.75,0],[1,0.25,0],[1,0.5,0],[1,0.75,0]];outlineConnect=0;fontColor=#232F3E;gradientColor=#F78E04;gradientDirection=north;fillColor=#D05C17;strokeColor=#ffffff;dashed=0;verticalLabelPosition=bottom;verticalAlign=top;align=center;html=1;fontSize=12;fontStyle=0;aspect=fixed;shape=mxgraph.aws4.resourceIcon;resIcon=mxgraph.aws4.lambda;" vertex="1" parent="1">
          <mxGeometry x="692" y="690" width="78" height="78" as="geometry" />
        </mxCell>
        <mxCell id="sp56Ecp61J_CKNmxilXY-85" style="edgeStyle=orthogonalEdgeStyle;rounded=0;orthogonalLoop=1;jettySize=auto;html=1;entryX=0;entryY=0.5;entryDx=0;entryDy=0;entryPerimeter=0;" edge="1" parent="1" source="sp56Ecp61J_CKNmxilXY-83" target="sp56Ecp61J_CKNmxilXY-82">
          <mxGeometry relative="1" as="geometry" />
        </mxCell>
        <mxCell id="sp56Ecp61J_CKNmxilXY-83" value="POST /lists" style="sketch=0;outlineConnect=0;fontColor=#232F3E;gradientColor=none;fillColor=#4D27AA;strokeColor=none;dashed=0;verticalLabelPosition=bottom;verticalAlign=top;align=center;html=1;fontSize=12;fontStyle=0;aspect=fixed;pointerEvents=1;shape=mxgraph.aws4.endpoint;" vertex="1" parent="1">
          <mxGeometry x="532" y="690" width="78" height="78" as="geometry" />
        </mxCell>
        <mxCell id="sp56Ecp61J_CKNmxilXY-86" value="GET /lists" style="sketch=0;outlineConnect=0;fontColor=#232F3E;gradientColor=none;fillColor=#4D27AA;strokeColor=none;dashed=0;verticalLabelPosition=bottom;verticalAlign=top;align=center;html=1;fontSize=12;fontStyle=0;aspect=fixed;pointerEvents=1;shape=mxgraph.aws4.endpoint;" vertex="1" parent="1">
          <mxGeometry x="532" y="808" width="78" height="78" as="geometry" />
        </mxCell>
        <mxCell id="sp56Ecp61J_CKNmxilXY-112" style="edgeStyle=orthogonalEdgeStyle;rounded=0;orthogonalLoop=1;jettySize=auto;html=1;entryX=0;entryY=0.5;entryDx=0;entryDy=0;entryPerimeter=0;" edge="1" parent="1" source="sp56Ecp61J_CKNmxilXY-87" target="sp56Ecp61J_CKNmxilXY-110">
          <mxGeometry relative="1" as="geometry" />
        </mxCell>
        <mxCell id="sp56Ecp61J_CKNmxilXY-87" value="get-user-lists" style="sketch=0;points=[[0,0,0],[0.25,0,0],[0.5,0,0],[0.75,0,0],[1,0,0],[0,1,0],[0.25,1,0],[0.5,1,0],[0.75,1,0],[1,1,0],[0,0.25,0],[0,0.5,0],[0,0.75,0],[1,0.25,0],[1,0.5,0],[1,0.75,0]];outlineConnect=0;fontColor=#232F3E;gradientColor=#F78E04;gradientDirection=north;fillColor=#D05C17;strokeColor=#ffffff;dashed=0;verticalLabelPosition=bottom;verticalAlign=top;align=center;html=1;fontSize=12;fontStyle=0;aspect=fixed;shape=mxgraph.aws4.resourceIcon;resIcon=mxgraph.aws4.lambda;" vertex="1" parent="1">
          <mxGeometry x="692" y="808" width="78" height="78" as="geometry" />
        </mxCell>
        <mxCell id="sp56Ecp61J_CKNmxilXY-88" style="edgeStyle=orthogonalEdgeStyle;rounded=0;orthogonalLoop=1;jettySize=auto;html=1;entryX=0;entryY=0.5;entryDx=0;entryDy=0;entryPerimeter=0;" edge="1" parent="1" source="sp56Ecp61J_CKNmxilXY-86" target="sp56Ecp61J_CKNmxilXY-87">
          <mxGeometry relative="1" as="geometry" />
        </mxCell>
        <mxCell id="sp56Ecp61J_CKNmxilXY-90" value="POST /lists/:id/members" style="sketch=0;outlineConnect=0;fontColor=#232F3E;gradientColor=none;fillColor=#4D27AA;strokeColor=none;dashed=0;verticalLabelPosition=bottom;verticalAlign=top;align=center;html=1;fontSize=12;fontStyle=0;aspect=fixed;pointerEvents=1;shape=mxgraph.aws4.endpoint;" vertex="1" parent="1">
          <mxGeometry x="532" y="930" width="78" height="78" as="geometry" />
        </mxCell>
        <mxCell id="sp56Ecp61J_CKNmxilXY-91" style="edgeStyle=orthogonalEdgeStyle;rounded=0;orthogonalLoop=1;jettySize=auto;html=1;entryX=0;entryY=0.5;entryDx=0;entryDy=0;entryPerimeter=0;" edge="1" parent="1" source="sp56Ecp61J_CKNmxilXY-90" target="sp56Ecp61J_CKNmxilXY-92">
          <mxGeometry relative="1" as="geometry" />
        </mxCell>
        <mxCell id="sp56Ecp61J_CKNmxilXY-113" style="edgeStyle=orthogonalEdgeStyle;rounded=0;orthogonalLoop=1;jettySize=auto;html=1;entryX=0;entryY=0.5;entryDx=0;entryDy=0;entryPerimeter=0;" edge="1" parent="1" source="sp56Ecp61J_CKNmxilXY-92" target="sp56Ecp61J_CKNmxilXY-110">
          <mxGeometry relative="1" as="geometry" />
        </mxCell>
        <mxCell id="sp56Ecp61J_CKNmxilXY-92" value="add-list-member" style="sketch=0;points=[[0,0,0],[0.25,0,0],[0.5,0,0],[0.75,0,0],[1,0,0],[0,1,0],[0.25,1,0],[0.5,1,0],[0.75,1,0],[1,1,0],[0,0.25,0],[0,0.5,0],[0,0.75,0],[1,0.25,0],[1,0.5,0],[1,0.75,0]];outlineConnect=0;fontColor=#232F3E;gradientColor=#F78E04;gradientDirection=north;fillColor=#D05C17;strokeColor=#ffffff;dashed=0;verticalLabelPosition=bottom;verticalAlign=top;align=center;html=1;fontSize=12;fontStyle=0;aspect=fixed;shape=mxgraph.aws4.resourceIcon;resIcon=mxgraph.aws4.lambda;" vertex="1" parent="1">
          <mxGeometry x="692" y="930" width="78" height="78" as="geometry" />
        </mxCell>
        <mxCell id="sp56Ecp61J_CKNmxilXY-94" value="POST /lists/:id/items" style="sketch=0;outlineConnect=0;fontColor=#232F3E;gradientColor=none;fillColor=#4D27AA;strokeColor=none;dashed=0;verticalLabelPosition=bottom;verticalAlign=top;align=center;html=1;fontSize=12;fontStyle=0;aspect=fixed;pointerEvents=1;shape=mxgraph.aws4.endpoint;" vertex="1" parent="1">
          <mxGeometry x="532" y="1050" width="78" height="78" as="geometry" />
        </mxCell>
        <mxCell id="sp56Ecp61J_CKNmxilXY-95" style="edgeStyle=orthogonalEdgeStyle;rounded=0;orthogonalLoop=1;jettySize=auto;html=1;entryX=0;entryY=0.5;entryDx=0;entryDy=0;entryPerimeter=0;" edge="1" parent="1" source="sp56Ecp61J_CKNmxilXY-94" target="sp56Ecp61J_CKNmxilXY-96">
          <mxGeometry relative="1" as="geometry" />
        </mxCell>
        <mxCell id="sp56Ecp61J_CKNmxilXY-114" style="edgeStyle=orthogonalEdgeStyle;rounded=0;orthogonalLoop=1;jettySize=auto;html=1;entryX=0;entryY=0.5;entryDx=0;entryDy=0;entryPerimeter=0;" edge="1" parent="1" source="sp56Ecp61J_CKNmxilXY-96" target="sp56Ecp61J_CKNmxilXY-110">
          <mxGeometry relative="1" as="geometry" />
        </mxCell>
        <mxCell id="sp56Ecp61J_CKNmxilXY-96" value="create-list-item" style="sketch=0;points=[[0,0,0],[0.25,0,0],[0.5,0,0],[0.75,0,0],[1,0,0],[0,1,0],[0.25,1,0],[0.5,1,0],[0.75,1,0],[1,1,0],[0,0.25,0],[0,0.5,0],[0,0.75,0],[1,0.25,0],[1,0.5,0],[1,0.75,0]];outlineConnect=0;fontColor=#232F3E;gradientColor=#F78E04;gradientDirection=north;fillColor=#D05C17;strokeColor=#ffffff;dashed=0;verticalLabelPosition=bottom;verticalAlign=top;align=center;html=1;fontSize=12;fontStyle=0;aspect=fixed;shape=mxgraph.aws4.resourceIcon;resIcon=mxgraph.aws4.lambda;" vertex="1" parent="1">
          <mxGeometry x="692" y="1050" width="78" height="78" as="geometry" />
        </mxCell>
        <mxCell id="sp56Ecp61J_CKNmxilXY-98" value="PATCH /lists/:id/items/:id" style="sketch=0;outlineConnect=0;fontColor=#232F3E;gradientColor=none;fillColor=#4D27AA;strokeColor=none;dashed=0;verticalLabelPosition=bottom;verticalAlign=top;align=center;html=1;fontSize=12;fontStyle=0;aspect=fixed;pointerEvents=1;shape=mxgraph.aws4.endpoint;" vertex="1" parent="1">
          <mxGeometry x="532" y="1169" width="78" height="78" as="geometry" />
        </mxCell>
        <mxCell id="sp56Ecp61J_CKNmxilXY-99" style="edgeStyle=orthogonalEdgeStyle;rounded=0;orthogonalLoop=1;jettySize=auto;html=1;entryX=0;entryY=0.5;entryDx=0;entryDy=0;entryPerimeter=0;" edge="1" parent="1" source="sp56Ecp61J_CKNmxilXY-98" target="sp56Ecp61J_CKNmxilXY-100">
          <mxGeometry relative="1" as="geometry" />
        </mxCell>
        <mxCell id="sp56Ecp61J_CKNmxilXY-115" style="edgeStyle=orthogonalEdgeStyle;rounded=0;orthogonalLoop=1;jettySize=auto;html=1;entryX=0;entryY=0.5;entryDx=0;entryDy=0;entryPerimeter=0;" edge="1" parent="1" source="sp56Ecp61J_CKNmxilXY-100" target="sp56Ecp61J_CKNmxilXY-110">
          <mxGeometry relative="1" as="geometry" />
        </mxCell>
        <mxCell id="sp56Ecp61J_CKNmxilXY-100" value="update-list-item" style="sketch=0;points=[[0,0,0],[0.25,0,0],[0.5,0,0],[0.75,0,0],[1,0,0],[0,1,0],[0.25,1,0],[0.5,1,0],[0.75,1,0],[1,1,0],[0,0.25,0],[0,0.5,0],[0,0.75,0],[1,0.25,0],[1,0.5,0],[1,0.75,0]];outlineConnect=0;fontColor=#232F3E;gradientColor=#F78E04;gradientDirection=north;fillColor=#D05C17;strokeColor=#ffffff;dashed=0;verticalLabelPosition=bottom;verticalAlign=top;align=center;html=1;fontSize=12;fontStyle=0;aspect=fixed;shape=mxgraph.aws4.resourceIcon;resIcon=mxgraph.aws4.lambda;" vertex="1" parent="1">
          <mxGeometry x="692" y="1169" width="78" height="78" as="geometry" />
        </mxCell>
        <mxCell id="sp56Ecp61J_CKNmxilXY-102" value="DELETE /lists/:id/items/:id" style="sketch=0;outlineConnect=0;fontColor=#232F3E;gradientColor=none;fillColor=#4D27AA;strokeColor=none;dashed=0;verticalLabelPosition=bottom;verticalAlign=top;align=center;html=1;fontSize=12;fontStyle=0;aspect=fixed;pointerEvents=1;shape=mxgraph.aws4.endpoint;" vertex="1" parent="1">
          <mxGeometry x="532" y="1290" width="78" height="78" as="geometry" />
        </mxCell>
        <mxCell id="sp56Ecp61J_CKNmxilXY-103" style="edgeStyle=orthogonalEdgeStyle;rounded=0;orthogonalLoop=1;jettySize=auto;html=1;entryX=0;entryY=0.5;entryDx=0;entryDy=0;entryPerimeter=0;" edge="1" parent="1" source="sp56Ecp61J_CKNmxilXY-102" target="sp56Ecp61J_CKNmxilXY-104">
          <mxGeometry relative="1" as="geometry" />
        </mxCell>
        <mxCell id="sp56Ecp61J_CKNmxilXY-116" style="edgeStyle=orthogonalEdgeStyle;rounded=0;orthogonalLoop=1;jettySize=auto;html=1;entryX=0;entryY=0.5;entryDx=0;entryDy=0;entryPerimeter=0;" edge="1" parent="1" source="sp56Ecp61J_CKNmxilXY-104" target="sp56Ecp61J_CKNmxilXY-110">
          <mxGeometry relative="1" as="geometry" />
        </mxCell>
        <mxCell id="sp56Ecp61J_CKNmxilXY-104" value="delete-list-item" style="sketch=0;points=[[0,0,0],[0.25,0,0],[0.5,0,0],[0.75,0,0],[1,0,0],[0,1,0],[0.25,1,0],[0.5,1,0],[0.75,1,0],[1,1,0],[0,0.25,0],[0,0.5,0],[0,0.75,0],[1,0.25,0],[1,0.5,0],[1,0.75,0]];outlineConnect=0;fontColor=#232F3E;gradientColor=#F78E04;gradientDirection=north;fillColor=#D05C17;strokeColor=#ffffff;dashed=0;verticalLabelPosition=bottom;verticalAlign=top;align=center;html=1;fontSize=12;fontStyle=0;aspect=fixed;shape=mxgraph.aws4.resourceIcon;resIcon=mxgraph.aws4.lambda;" vertex="1" parent="1">
          <mxGeometry x="692" y="1290" width="78" height="78" as="geometry" />
        </mxCell>
        <mxCell id="sp56Ecp61J_CKNmxilXY-106" value="GET /lists/:id/items" style="sketch=0;outlineConnect=0;fontColor=#232F3E;gradientColor=none;fillColor=#4D27AA;strokeColor=none;dashed=0;verticalLabelPosition=bottom;verticalAlign=top;align=center;html=1;fontSize=12;fontStyle=0;aspect=fixed;pointerEvents=1;shape=mxgraph.aws4.endpoint;" vertex="1" parent="1">
          <mxGeometry x="532" y="1410" width="78" height="78" as="geometry" />
        </mxCell>
        <mxCell id="sp56Ecp61J_CKNmxilXY-107" style="edgeStyle=orthogonalEdgeStyle;rounded=0;orthogonalLoop=1;jettySize=auto;html=1;entryX=0;entryY=0.5;entryDx=0;entryDy=0;entryPerimeter=0;" edge="1" parent="1" source="sp56Ecp61J_CKNmxilXY-106" target="sp56Ecp61J_CKNmxilXY-108">
          <mxGeometry relative="1" as="geometry" />
        </mxCell>
        <mxCell id="sp56Ecp61J_CKNmxilXY-117" style="edgeStyle=orthogonalEdgeStyle;rounded=0;orthogonalLoop=1;jettySize=auto;html=1;entryX=0;entryY=0.5;entryDx=0;entryDy=0;entryPerimeter=0;" edge="1" parent="1" source="sp56Ecp61J_CKNmxilXY-108" target="sp56Ecp61J_CKNmxilXY-110">
          <mxGeometry relative="1" as="geometry" />
        </mxCell>
        <mxCell id="sp56Ecp61J_CKNmxilXY-108" value="get-list-items" style="sketch=0;points=[[0,0,0],[0.25,0,0],[0.5,0,0],[0.75,0,0],[1,0,0],[0,1,0],[0.25,1,0],[0.5,1,0],[0.75,1,0],[1,1,0],[0,0.25,0],[0,0.5,0],[0,0.75,0],[1,0.25,0],[1,0.5,0],[1,0.75,0]];outlineConnect=0;fontColor=#232F3E;gradientColor=#F78E04;gradientDirection=north;fillColor=#D05C17;strokeColor=#ffffff;dashed=0;verticalLabelPosition=bottom;verticalAlign=top;align=center;html=1;fontSize=12;fontStyle=0;aspect=fixed;shape=mxgraph.aws4.resourceIcon;resIcon=mxgraph.aws4.lambda;" vertex="1" parent="1">
          <mxGeometry x="692" y="1410" width="78" height="78" as="geometry" />
        </mxCell>
        <mxCell id="sp56Ecp61J_CKNmxilXY-120" style="edgeStyle=orthogonalEdgeStyle;rounded=0;orthogonalLoop=1;jettySize=auto;html=1;" edge="1" parent="1" source="sp56Ecp61J_CKNmxilXY-110" target="sp56Ecp61J_CKNmxilXY-119">
          <mxGeometry relative="1" as="geometry" />
        </mxCell>
        <mxCell id="sp56Ecp61J_CKNmxilXY-110" value="grocery-list-table" style="sketch=0;points=[[0,0,0],[0.25,0,0],[0.5,0,0],[0.75,0,0],[1,0,0],[0,1,0],[0.25,1,0],[0.5,1,0],[0.75,1,0],[1,1,0],[0,0.25,0],[0,0.5,0],[0,0.75,0],[1,0.25,0],[1,0.5,0],[1,0.75,0]];outlineConnect=0;fontColor=#232F3E;gradientColor=#4D72F3;gradientDirection=north;fillColor=#3334B9;strokeColor=#ffffff;dashed=0;verticalLabelPosition=bottom;verticalAlign=top;align=center;html=1;fontSize=12;fontStyle=0;aspect=fixed;shape=mxgraph.aws4.resourceIcon;resIcon=mxgraph.aws4.dynamodb;" vertex="1" parent="1">
          <mxGeometry x="930" y="1050" width="78" height="78" as="geometry" />
        </mxCell>
        <mxCell id="sp56Ecp61J_CKNmxilXY-127" style="edgeStyle=orthogonalEdgeStyle;rounded=0;orthogonalLoop=1;jettySize=auto;html=1;entryX=0.5;entryY=1;entryDx=0;entryDy=0;entryPerimeter=0;" edge="1" parent="1" source="sp56Ecp61J_CKNmxilXY-118" target="sp56Ecp61J_CKNmxilXY-79">
          <mxGeometry relative="1" as="geometry" />
        </mxCell>
        <mxCell id="sp56Ecp61J_CKNmxilXY-118" value="" style="sketch=0;points=[[0,0,0],[0.25,0,0],[0.5,0,0],[0.75,0,0],[1,0,0],[0,1,0],[0.25,1,0],[0.5,1,0],[0.75,1,0],[1,1,0],[0,0.25,0],[0,0.5,0],[0,0.75,0],[1,0.25,0],[1,0.5,0],[1,0.75,0]];outlineConnect=0;fontColor=#232F3E;gradientColor=#60A337;gradientDirection=north;fillColor=#277116;strokeColor=#ffffff;dashed=0;verticalLabelPosition=bottom;verticalAlign=top;align=center;html=1;fontSize=12;fontStyle=0;aspect=fixed;shape=mxgraph.aws4.resourceIcon;resIcon=mxgraph.aws4.iot_core;" vertex="1" parent="1">
          <mxGeometry x="132.5" y="1752" width="78" height="78" as="geometry" />
        </mxCell>
        <mxCell id="sp56Ecp61J_CKNmxilXY-122" style="edgeStyle=orthogonalEdgeStyle;rounded=0;orthogonalLoop=1;jettySize=auto;html=1;entryX=0;entryY=0.5;entryDx=0;entryDy=0;entryPerimeter=0;" edge="1" parent="1" source="sp56Ecp61J_CKNmxilXY-119" target="dqGexZCGm1QY2JAHM1nj-1">
          <mxGeometry relative="1" as="geometry">
            <mxPoint x="1240" y="1090.0769230769229" as="targetPoint" />
          </mxGeometry>
        </mxCell>
        <mxCell id="sp56Ecp61J_CKNmxilXY-119" value="" style="sketch=0;outlineConnect=0;fontColor=#232F3E;gradientColor=none;fillColor=#2E27AD;strokeColor=none;dashed=0;verticalLabelPosition=bottom;verticalAlign=top;align=center;html=1;fontSize=12;fontStyle=0;aspect=fixed;pointerEvents=1;shape=mxgraph.aws4.dynamodb_stream;" vertex="1" parent="1">
          <mxGeometry x="1080" y="1050" width="78" height="78" as="geometry" />
        </mxCell>
        <mxCell id="sp56Ecp61J_CKNmxilXY-123" style="edgeStyle=orthogonalEdgeStyle;rounded=0;orthogonalLoop=1;jettySize=auto;html=1;entryX=1;entryY=0.5;entryDx=0;entryDy=0;entryPerimeter=0;exitX=0.5;exitY=1;exitDx=0;exitDy=0;exitPerimeter=0;" edge="1" parent="1" source="dqGexZCGm1QY2JAHM1nj-1" target="sp56Ecp61J_CKNmxilXY-118">
          <mxGeometry relative="1" as="geometry">
            <Array as="points">
              <mxPoint x="1299" y="1791" />
            </Array>
            <mxPoint x="1279" y="1128.9230385374376" as="sourcePoint" />
            <mxPoint x="370" y="1539" as="targetPoint" />
          </mxGeometry>
        </mxCell>
        <mxCell id="sp56Ecp61J_CKNmxilXY-124" value="item-created" style="edgeLabel;html=1;align=center;verticalAlign=middle;resizable=0;points=[];" connectable="0" vertex="1" parent="sp56Ecp61J_CKNmxilXY-123">
          <mxGeometry x="-0.8369" y="-4" relative="1" as="geometry">
            <mxPoint x="4" y="-10" as="offset" />
          </mxGeometry>
        </mxCell>
        <mxCell id="sp56Ecp61J_CKNmxilXY-125" value="item-updated" style="edgeLabel;html=1;align=center;verticalAlign=middle;resizable=0;points=[];" connectable="0" vertex="1" parent="sp56Ecp61J_CKNmxilXY-123">
          <mxGeometry x="-0.8107" y="1" relative="1" as="geometry">
            <mxPoint as="offset" />
          </mxGeometry>
        </mxCell>
        <mxCell id="sp56Ecp61J_CKNmxilXY-126" value="item-removed" style="edgeLabel;html=1;align=center;verticalAlign=middle;resizable=0;points=[];" connectable="0" vertex="1" parent="sp56Ecp61J_CKNmxilXY-123">
          <mxGeometry x="-0.7743" y="2" relative="1" as="geometry">
            <mxPoint y="3" as="offset" />
          </mxGeometry>
        </mxCell>
        <mxCell id="sp56Ecp61J_CKNmxilXY-137" value="list-member" style="rounded=0;whiteSpace=wrap;html=1;" vertex="1" parent="1">
          <mxGeometry x="1540" y="728" width="120" height="60" as="geometry" />
        </mxCell>
        <mxCell id="sp56Ecp61J_CKNmxilXY-138" value="list-item" style="rounded=0;whiteSpace=wrap;html=1;" vertex="1" parent="1">
          <mxGeometry x="1540" y="870" width="120" height="60" as="geometry" />
        </mxCell>
        <mxCell id="sp56Ecp61J_CKNmxilXY-139" value="all lists that a user is a member of" style="rounded=0;whiteSpace=wrap;html=1;" vertex="1" parent="1">
          <mxGeometry x="1840" y="690" width="120" height="60" as="geometry" />
        </mxCell>
        <mxCell id="sp56Ecp61J_CKNmxilXY-140" value="all members of a list" style="rounded=0;whiteSpace=wrap;html=1;" vertex="1" parent="1">
          <mxGeometry x="1840" y="768" width="120" height="60" as="geometry" />
        </mxCell>
        <mxCell id="sp56Ecp61J_CKNmxilXY-142" value="all items of a list" style="rounded=0;whiteSpace=wrap;html=1;" vertex="1" parent="1">
          <mxGeometry x="1840" y="870" width="120" height="60" as="geometry" />
        </mxCell>
        <mxCell id="sp56Ecp61J_CKNmxilXY-143" value="pk=list-member#$userId&lt;br&gt;sk=begins-with(list)" style="rounded=0;whiteSpace=wrap;html=1;" vertex="1" parent="1">
          <mxGeometry x="2007" y="690" width="153" height="60" as="geometry" />
        </mxCell>
        <mxCell id="sp56Ecp61J_CKNmxilXY-144" value="(list_members index)&lt;br&gt;list_id=$listId&lt;br&gt;sk=begins_with(list-member)" style="rounded=0;whiteSpace=wrap;html=1;" vertex="1" parent="1">
          <mxGeometry x="2007" y="768" width="180" height="60" as="geometry" />
        </mxCell>
        <mxCell id="sp56Ecp61J_CKNmxilXY-145" value="pk=list#$listId&lt;br&gt;sk=begins_with(list-item)" style="rounded=0;whiteSpace=wrap;html=1;" vertex="1" parent="1">
          <mxGeometry x="2007" y="870" width="180" height="60" as="geometry" />
        </mxCell>
        <mxCell id="sp56Ecp61J_CKNmxilXY-146" value="pk=list-member#$userId" style="rounded=0;whiteSpace=wrap;html=1;" vertex="1" parent="1">
          <mxGeometry x="1680" y="728" width="140" height="30" as="geometry" />
        </mxCell>
        <mxCell id="sp56Ecp61J_CKNmxilXY-147" value="sk=list#$listId" style="rounded=0;whiteSpace=wrap;html=1;" vertex="1" parent="1">
          <mxGeometry x="1680" y="758" width="140" height="30" as="geometry" />
        </mxCell>
        <mxCell id="sp56Ecp61J_CKNmxilXY-148" value="pk=list#$listId" style="rounded=0;whiteSpace=wrap;html=1;" vertex="1" parent="1">
          <mxGeometry x="1680" y="870" width="140" height="30" as="geometry" />
        </mxCell>
        <mxCell id="sp56Ecp61J_CKNmxilXY-149" value="sk=list-item$#itemId" style="rounded=0;whiteSpace=wrap;html=1;" vertex="1" parent="1">
          <mxGeometry x="1680" y="900" width="140" height="30" as="geometry" />
        </mxCell>
        <mxCell id="dqGexZCGm1QY2JAHM1nj-1" value="emit-real-time-events" style="sketch=0;points=[[0,0,0],[0.25,0,0],[0.5,0,0],[0.75,0,0],[1,0,0],[0,1,0],[0.25,1,0],[0.5,1,0],[0.75,1,0],[1,1,0],[0,0.25,0],[0,0.5,0],[0,0.75,0],[1,0.25,0],[1,0.5,0],[1,0.75,0]];outlineConnect=0;fontColor=#232F3E;gradientColor=#F78E04;gradientDirection=north;fillColor=#D05C17;strokeColor=#ffffff;dashed=0;verticalLabelPosition=top;verticalAlign=bottom;align=center;html=1;fontSize=12;fontStyle=0;aspect=fixed;shape=mxgraph.aws4.resourceIcon;resIcon=mxgraph.aws4.lambda;labelPosition=center;" vertex="1" parent="1">
          <mxGeometry x="1260" y="1050" width="78" height="78" as="geometry" />
        </mxCell>
        <mxCell id="dqGexZCGm1QY2JAHM1nj-7" style="edgeStyle=orthogonalEdgeStyle;rounded=0;orthogonalLoop=1;jettySize=auto;html=1;entryX=0;entryY=0.5;entryDx=0;entryDy=0;" edge="1" parent="1" source="dqGexZCGm1QY2JAHM1nj-2" target="dqGexZCGm1QY2JAHM1nj-8">
          <mxGeometry relative="1" as="geometry">
            <mxPoint x="901.4200000000001" y="1671.0000000000002" as="targetPoint" />
          </mxGeometry>
        </mxCell>
        <mxCell id="dqGexZCGm1QY2JAHM1nj-2" value="get-presigned-url" style="sketch=0;points=[[0,0,0],[0.25,0,0],[0.5,0,0],[0.75,0,0],[1,0,0],[0,1,0],[0.25,1,0],[0.5,1,0],[0.75,1,0],[1,1,0],[0,0.25,0],[0,0.5,0],[0,0.75,0],[1,0.25,0],[1,0.5,0],[1,0.75,0]];outlineConnect=0;fontColor=#232F3E;gradientColor=#F78E04;gradientDirection=north;fillColor=#D05C17;strokeColor=#ffffff;dashed=0;verticalLabelPosition=bottom;verticalAlign=top;align=center;html=1;fontSize=12;fontStyle=0;aspect=fixed;shape=mxgraph.aws4.resourceIcon;resIcon=mxgraph.aws4.lambda;" vertex="1" parent="1">
          <mxGeometry x="692.5" y="1632" width="78" height="78" as="geometry" />
        </mxCell>
        <mxCell id="dqGexZCGm1QY2JAHM1nj-3" value="GET /lists/:id/items" style="sketch=0;outlineConnect=0;fontColor=#232F3E;gradientColor=none;fillColor=#4D27AA;strokeColor=none;dashed=0;verticalLabelPosition=bottom;verticalAlign=top;align=center;html=1;fontSize=12;fontStyle=0;aspect=fixed;pointerEvents=1;shape=mxgraph.aws4.endpoint;" vertex="1" parent="1">
          <mxGeometry x="532.5" y="1632" width="78" height="78" as="geometry" />
        </mxCell>
        <mxCell id="dqGexZCGm1QY2JAHM1nj-4" style="edgeStyle=orthogonalEdgeStyle;rounded=0;orthogonalLoop=1;jettySize=auto;html=1;entryX=0;entryY=0.5;entryDx=0;entryDy=0;entryPerimeter=0;" edge="1" parent="1" source="dqGexZCGm1QY2JAHM1nj-3" target="dqGexZCGm1QY2JAHM1nj-2">
          <mxGeometry relative="1" as="geometry" />
        </mxCell>
        <mxCell id="dqGexZCGm1QY2JAHM1nj-8" value="" style="shape=image;verticalLabelPosition=bottom;labelBackgroundColor=default;verticalAlign=top;aspect=fixed;imageAspect=0;image=data:image/svg+xml,PHN2ZyB4bWxuczp4bGluaz0iaHR0cDovL3d3dy53My5vcmcvMTk5OS94bGluayIgeG1sbnM9Imh0dHA6Ly93d3cudzMub3JnLzIwMDAvc3ZnIiB2ZXJzaW9uPSIxLjEiIHZpZXdCb3g9IjAgMCA4MCA4MCIgaGVpZ2h0PSI4MHB4IiB3aWR0aD0iODBweCI+JiN4YTsgICAgPHRpdGxlPkljb24tQXJjaGl0ZWN0dXJlLzY0L0FyY2hfQVdTLUlkZW50aXR5LWFuZC1BY2Nlc3MtTWFuYWdlbWVudF82NDwvdGl0bGU+JiN4YTsgICAgPGcgZmlsbC1ydWxlPSJldmVub2RkIiBmaWxsPSJub25lIiBzdHJva2Utd2lkdGg9IjEiIHN0cm9rZT0ibm9uZSIgaWQ9Ikljb24tQXJjaGl0ZWN0dXJlLzY0L0FyY2hfQVdTLUlkZW50aXR5LWFuZC1BY2Nlc3MtTWFuYWdlbWVudF82NCI+JiN4YTsgICAgICAgIDxnIGZpbGw9IiNERDM0NEMiIGlkPSJJY29uLUFyY2hpdGVjdHVyZS1CRy82NC9TZWN1cml0eS1JZGVudGl0eS1Db21wbGlhbmNlIj4mI3hhOyAgICAgICAgICAgIDxyZWN0IGhlaWdodD0iODAiIHdpZHRoPSI4MCIgeT0iMCIgeD0iMCIgaWQ9IlJlY3RhbmdsZSIvPiYjeGE7ICAgICAgICA8L2c+JiN4YTsgICAgICAgIDxwYXRoIGZpbGw9IiNGRkZGRkYiIGlkPSJBV1MtSWRlbnRpdHktYW5kLUFjY2Vzcy1NYW5hZ2VtZW50X0ljb25fNjRfU3F1aWQiIGQ9Ik0xNCw1OSBMNjYsNTkgTDY2LDIxIEwxNCwyMSBMMTQsNTkgWiBNNjgsMjAgTDY4LDYwIEM2OCw2MC41NTIgNjcuNTUzLDYxIDY3LDYxIEwxMyw2MSBDMTIuNDQ3LDYxIDEyLDYwLjU1MiAxMiw2MCBMMTIsMjAgQzEyLDE5LjQ0OCAxMi40NDcsMTkgMTMsMTkgTDY3LDE5IEM2Ny41NTMsMTkgNjgsMTkuNDQ4IDY4LDIwIEw2OCwyMCBaIE00NCw0OCBMNTksNDggTDU5LDQ2IEw0NCw0NiBMNDQsNDggWiBNNTcsNDIgTDYyLDQyIEw2Miw0MCBMNTcsNDAgTDU3LDQyIFogTTQ0LDQyIEw1Miw0MiBMNTIsNDAgTDQ0LDQwIEw0NCw0MiBaIE0yOSw0NiBDMjksNDUuNDQ5IDI4LjU1Miw0NSAyOCw0NSBDMjcuNDQ4LDQ1IDI3LDQ1LjQ0OSAyNyw0NiBDMjcsNDYuNTUxIDI3LjQ0OCw0NyAyOCw0NyBDMjguNTUyLDQ3IDI5LDQ2LjU1MSAyOSw0NiBMMjksNDYgWiBNMzEsNDYgQzMxLDQ3LjMwMiAzMC4xNjEsNDguNDAxIDI5LDQ4LjgxNiBMMjksNTEgTDI3LDUxIEwyNyw0OC44MTUgQzI1LjgzOSw0OC40MDEgMjUsNDcuMzAyIDI1LDQ2IEMyNSw0NC4zNDYgMjYuMzQ2LDQzIDI4LDQzIEMyOS42NTQsNDMgMzEsNDQuMzQ2IDMxLDQ2IEwzMSw0NiBaIE0xOSw1My45OTMgTDM2Ljk5NCw1NCBMMzYuOTk2LDUwIEwzMyw1MCBMMzMsNDggTDM2Ljk5Niw0OCBMMzYuOTk4LDQ1IEwzMyw0NSBMMzMsNDMgTDM2Ljk5OSw0MyBMMzcsNDAuMDA3IEwxOS4wMDYsNDAgTDE5LDUzLjk5MyBaIE0yMiwzOC4wMDEgTDM0LDM4LjAwNiBMMzQsMzEgQzM0LjAwMSwyOC42OTcgMzEuMTk3LDI2LjY3NyAyOCwyNi42NzUgTDI3Ljk5NiwyNi42NzUgQzI0LjgwNCwyNi42NzUgMjIuMDA0LDI4LjY5NiAyMi4wMDIsMzEgTDIyLDM4LjAwMSBaIE0xNyw1NC45OTIgTDE3LjAwNiwzOSBDMTcuMDA2LDM4LjczNCAxNy4xMTEsMzguNDggMTcuMjk5LDM4LjI5MiBDMTcuNDg2LDM4LjEwNSAxNy43NDEsMzggMTguMDA2LDM4IEwyMCwzOC4wMDEgTDIwLjAwMiwzMSBDMjAuMDA0LDI3LjUxMiAyMy41OSwyNC42NzUgMjcuOTk2LDI0LjY3NSBMMjgsMjQuNjc1IEMzMi40MTIsMjQuNjc3IDM2LjAwMSwyNy41MTUgMzYsMzEgTDM2LDM4LjAwNyBMMzgsMzguMDA4IEMzOC41NTMsMzguMDA4IDM5LDM4LjQ1NiAzOSwzOS4wMDggTDM4Ljk5NCw1NSBDMzguOTk0LDU1LjI2NiAzOC44ODksNTUuNTIgMzguNzAxLDU1LjcwOCBDMzguNTE0LDU1Ljg5NSAzOC4yNTksNTYgMzcuOTk0LDU2IEwxOCw1NS45OTIgQzE3LjQ0Nyw1NS45OTIgMTcsNTUuNTQ0IDE3LDU0Ljk5MiBMMTcsNTQuOTkyIFogTTYwLDM2IEw2MiwzNiBMNjIsMzQgTDYwLDM0IEw2MCwzNiBaIE00NCwzNiBMNTUsMzYgTDU1LDM0IEw0NCwzNCBMNDQsMzYgWiIvPiYjeGE7ICAgIDwvZz4mI3hhOzwvc3ZnPg==;" vertex="1" parent="1">
          <mxGeometry x="929.5" y="1630" width="80" height="80" as="geometry" />
        </mxCell>
        <mxCell id="4SrW75g7R1ptIxgZbfpH-1" value="GET /lists/:id/items" style="sketch=0;outlineConnect=0;fontColor=#232F3E;gradientColor=none;fillColor=#4D27AA;strokeColor=none;dashed=0;verticalLabelPosition=bottom;verticalAlign=top;align=center;html=1;fontSize=12;fontStyle=0;aspect=fixed;pointerEvents=1;shape=mxgraph.aws4.endpoint;" vertex="1" parent="1">
          <mxGeometry x="532" y="1520" width="78" height="78" as="geometry" />
        </mxCell>
        <mxCell id="4SrW75g7R1ptIxgZbfpH-2" style="edgeStyle=orthogonalEdgeStyle;rounded=0;orthogonalLoop=1;jettySize=auto;html=1;entryX=0;entryY=0.5;entryDx=0;entryDy=0;entryPerimeter=0;" edge="1" parent="1" source="4SrW75g7R1ptIxgZbfpH-1" target="4SrW75g7R1ptIxgZbfpH-3">
          <mxGeometry relative="1" as="geometry" />
        </mxCell>
        <mxCell id="4SrW75g7R1ptIxgZbfpH-5" style="edgeStyle=orthogonalEdgeStyle;rounded=0;orthogonalLoop=1;jettySize=auto;html=1;entryX=0;entryY=0.5;entryDx=0;entryDy=0;entryPerimeter=0;" edge="1" parent="1" source="4SrW75g7R1ptIxgZbfpH-3" target="sp56Ecp61J_CKNmxilXY-110">
          <mxGeometry relative="1" as="geometry" />
        </mxCell>
        <mxCell id="4SrW75g7R1ptIxgZbfpH-3" value="get-list" style="sketch=0;points=[[0,0,0],[0.25,0,0],[0.5,0,0],[0.75,0,0],[1,0,0],[0,1,0],[0.25,1,0],[0.5,1,0],[0.75,1,0],[1,1,0],[0,0.25,0],[0,0.5,0],[0,0.75,0],[1,0.25,0],[1,0.5,0],[1,0.75,0]];outlineConnect=0;fontColor=#232F3E;gradientColor=#F78E04;gradientDirection=north;fillColor=#D05C17;strokeColor=#ffffff;dashed=0;verticalLabelPosition=bottom;verticalAlign=top;align=center;html=1;fontSize=12;fontStyle=0;aspect=fixed;shape=mxgraph.aws4.resourceIcon;resIcon=mxgraph.aws4.lambda;" vertex="1" parent="1">
          <mxGeometry x="692" y="1520" width="78" height="78" as="geometry" />
        </mxCell>
        <mxCell id="4SrW75g7R1ptIxgZbfpH-7" value="Data Model" style="rounded=0;whiteSpace=wrap;html=1;" vertex="1" parent="1">
          <mxGeometry x="1460" y="640" width="790" height="20" as="geometry" />
        </mxCell>
      </root>
    </mxGraphModel>
  </diagram>
</mxfile>
